# xmcd
# 
# Track frame offsets:
#     150
#     51425
#     67662
#     97935
#     137257
#     158367
# 
# Disc length: 2407
# 
# Revision: 1
# Processed by: cddbd v1.5.2PL0 Copyright (c) Steve Scherf et al.
# Submitted via: BonkEnc v1.0.8
# 
DISCID=3a096506
DTITLE=向井滋春 - Favorite Time
DYEAR=1976
DGENRE=Jazz
TTITLE0=Afro Blue
TTITLE1=Old Folks
TTITLE2=Autumn Leaves
TTITLE3=Impressions
TTITLE4=In A Sentimental Mood
TTITLE5=Stella By Starlight
EXTD=
EXTT0=
EXTT1=
EXTT2=
EXTT3=
EXTT4=
EXTT5=
PLAYORDER=
